<?xml version="1.0" encoding="utf-8"?>
<!-- Generator: Adobe Illustrator 23.0.4, SVG Export Plug-In . SVG Version: 6.00 Build 0)  -->
<svg version="1.1" id="Capa_1" xmlns="http://www.w3.org/2000/svg" xmlns:xlink="http://www.w3.org/1999/xlink" x="0px" y="0px"
	 viewBox="0 0 1080 1080" style="enable-background:new 0 0 1080 1080;" xml:space="preserve">
<style type="text/css">
	.st0{fill:#50899C;}
	.st1{enable-background:new    ;}
	.st2{fill:#E6E6E6;}
</style>
<path class="st0" d="M548.4,188.5c-71.5,0-129.4,58-129.4,129.5c0,68,52.7,124.4,120.5,129.1c-0.1-6.7-0.2-12.9,0.1-19.2
	c1.1-21.8,4.1-43.5,9-64.7c0.6-3.1-0.1-6.3-1.8-8.9c-16.1-21.9-27.9-46.2-39.9-70.4c-0.5-0.9-0.9-1.8-1.4-2.7
	c-2.5-4.8-4.5-5.1-8.1-0.9c-3.3,3.8-6.3,7.8-9,12.1c-8,13.5-15.9,27.1-23.1,41.1c-1.4,2.8-1,7.9,0.7,10.7
	c12.8,22.2,26.1,44.1,39.2,66.2c2.4,4.1,4.6,8.4,6.8,12.6l-1,0.8c-5.3-5.3-11.1-10.4-15.9-16.1c-13.4-15.9-26.1-32.3-39.7-48
	c-10.5-12.1-10-24.4-2.9-37.6c14-26.2,29-51.9,48.8-74.2c5.1-5.7,7.5-5.6,10.9,1.4c5.7,12.1,10.8,24.5,16.5,36.6
	c2.6,5.8,5.6,11.4,8.9,16.8c9.2,15,18.5,29.9,28.1,44.7c2,2.8,2.3,6.4,0.7,9.4c-6.8,15-11.8,30.6-14.1,47c-0.1,1.3-0.1,2.6,0,3.9
	l1.5,0.3c2.4-5.2,4.7-10.5,7.3-15.7c5.8-11.5,14.2-21,23.4-30c4.7-4.6,4.9-7.3,2.2-13.5c-7.1-16.4-14.8-32.7-21.1-49.4
	c-4.5-12-7.1-24.8-10.7-37.1c-0.6-2.1-1.8-5.1-3.3-5.5c-1.6-0.4-4.1,1.5-5.8,2.9c-3.6,3-7,6.3-10.9,9.8c-1.6-3-3.6-6.3-5.2-9.8
	c-0.3-0.7,0.3-2.3,1-3c8.9-8.6,17.8-17.2,27-25.5c3.9-3.4,5.4-2.6,6.5,2.7c2.9,14.1,4.7,28.5,8.8,42.3c4.8,16,11.3,31.5,17.6,47
	c4,9.8,8.8,19.2,13.6,28.6c3.4,6.6,1,11.5-3.5,16.2c-4.7,5-9.5,9.9-13.9,15.2c-4.1,5-7.8,10.5-11.5,15.9c-0.5,0.6-0.2,1.8-0.5,3.9
	c4-2.7,7.2-4.6,10.2-6.9c8.8-6.8,18.6-12.1,29.1-15.6c7.8-2.8,8.5-3.8,7.4-12.1c-1.3-9.8-3.4-19.5-4.4-29.4
	c-2.1-21.7-3.8-43.4-5.5-65.2c-0.4-5.5-0.5-11.1-0.8-16.6c-0.3-4.5-2.4-5.7-6.3-3.2c-5.9,3.8-11.6,7.9-18.6,12.8
	c-1.3-5.3-2.5-9.9-3.3-14.4c-0.1-0.8,1.4-2.2,2.4-2.9c11-6.4,21.9-12.9,33.1-19c5.4-2.9,7.3-1.7,7.4,4.6c0.2,15.5-0.6,31,0.5,46.4
	c1.7,24,4.7,48,7.3,72c1,8.8,2.4,17.6,3.8,26.4c0.7,4.4-0.8,6.8-5.2,8.2c-20.6,6.9-40.8,14.9-57.9,28.5c-8.1,6.4-14.9,14.4-21.9,22
	c-2.5,2.7-4.8,5.6-7.2,8.6c1.3,0,2.5,0.1,3.8,0.1c71.5-0.6,129-59.1,128.3-130.6C676,246.2,619,189.1,548.4,188.5"/>
<g class="st1">
	<path class="st2" d="M402.7,537.4v-9h23.1v21.2c-2.2,2.2-5.5,4.1-9.8,5.7c-4.3,1.7-8.6,2.5-13,2.5c-5.6,0-10.4-1.2-14.5-3.5
		c-4.1-2.3-7.2-5.7-9.3-10c-2.1-4.3-3.1-9.1-3.1-14.2c0-5.5,1.2-10.5,3.5-14.8c2.3-4.3,5.7-7.6,10.2-9.9c3.4-1.8,7.6-2.6,12.7-2.6
		c6.6,0,11.8,1.4,15.5,4.2c3.7,2.8,6.1,6.6,7.2,11.5l-10.7,2c-0.7-2.6-2.2-4.7-4.2-6.2c-2.1-1.5-4.6-2.3-7.7-2.3
		c-4.7,0-8.4,1.5-11.2,4.5c-2.8,3-4.2,7.4-4.2,13.2c0,6.3,1.4,11,4.2,14.2c2.8,3.2,6.5,4.7,11,4.7c2.2,0,4.5-0.4,6.8-1.3
		s4.2-2,5.8-3.2v-6.7H402.7z"/>
	<path class="st2" d="M446.8,556.9v-53.1h22.6c5.7,0,9.8,0.5,12.4,1.4c2.6,1,4.6,2.7,6.2,5.1c1.5,2.4,2.3,5.2,2.3,8.4
		c0,4-1.2,7.3-3.5,9.9s-5.8,4.2-10.5,4.9c2.3,1.4,4.2,2.8,5.7,4.5c1.5,1.6,3.5,4.5,6.1,8.6l6.5,10.4h-12.8l-7.8-11.6
		c-2.8-4.1-4.6-6.7-5.7-7.8c-1-1.1-2.1-1.8-3.2-2.2c-1.1-0.4-2.9-0.6-5.4-0.6h-2.2v22.2H446.8z M457.6,526.3h7.9
		c5.1,0,8.4-0.2,9.6-0.7c1.3-0.4,2.3-1.2,3-2.2c0.7-1.1,1.1-2.4,1.1-4c0-1.8-0.5-3.2-1.4-4.3c-1-1.1-2.3-1.8-4-2.1
		c-0.9-0.1-3.5-0.2-7.8-0.2h-8.4V526.3z"/>
	<path class="st2" d="M511.5,503.8h10.7v28.8c0,4.6,0.1,7.5,0.4,8.9c0.5,2.2,1.6,3.9,3.3,5.2c1.7,1.3,4.1,2,7.1,2
		c3,0,5.3-0.6,6.9-1.9c1.5-1.2,2.5-2.8,2.8-4.6c0.3-1.8,0.5-4.8,0.5-9v-29.4h10.7v27.9c0,6.4-0.3,10.9-0.9,13.5
		c-0.6,2.6-1.6,4.9-3.2,6.7s-3.6,3.3-6.3,4.3c-2.6,1.1-6,1.6-10.2,1.6c-5.1,0-8.9-0.6-11.5-1.8s-4.7-2.7-6.2-4.6s-2.5-3.8-3-5.9
		c-0.7-3-1.1-7.5-1.1-13.5V503.8z"/>
	<path class="st2" d="M576.3,556.9v-53.1h17.2c6.5,0,10.8,0.3,12.8,0.8c3,0.8,5.6,2.5,7.6,5.2c2.1,2.7,3.1,6.1,3.1,10.3
		c0,3.3-0.6,6-1.8,8.2c-1.2,2.2-2.7,4-4.5,5.2c-1.8,1.3-3.7,2.1-5.6,2.5c-2.6,0.5-6.3,0.8-11.1,0.8h-7v20H576.3z M587,512.8v15.1
		h5.9c4.2,0,7.1-0.3,8.5-0.8c1.4-0.6,2.5-1.4,3.4-2.6c0.8-1.2,1.2-2.6,1.2-4.1c0-1.9-0.6-3.5-1.7-4.8s-2.6-2-4.3-2.4
		c-1.3-0.2-3.9-0.4-7.7-0.4H587z"/>
	<path class="st2" d="M634.8,530.7c0-5.4,0.8-10,2.4-13.6c1.2-2.7,2.9-5.1,4.9-7.3c2.1-2.2,4.4-3.7,6.9-4.8
		c3.3-1.4,7.1-2.1,11.5-2.1c7.8,0,14.1,2.4,18.8,7.3s7.1,11.6,7.1,20.3c0,8.6-2.3,15.3-7,20.1c-4.7,4.8-10.9,7.3-18.7,7.3
		c-7.9,0-14.2-2.4-18.8-7.2C637.1,545.8,634.8,539.1,634.8,530.7z M645.8,530.3c0,6,1.4,10.6,4.2,13.7c2.8,3.1,6.3,4.7,10.6,4.7
		s7.8-1.5,10.5-4.6s4.1-7.7,4.1-13.9c0-6.1-1.3-10.6-4-13.6c-2.7-3-6.2-4.5-10.6-4.5s-8,1.5-10.7,4.5
		C647.2,519.6,645.8,524.2,645.8,530.3z"/>
</g>
<g class="st1">
	<path class="st2" d="M171.1,762V577.1h35.4V762H171.1z"/>
	<path class="st2" d="M320.4,719.4l35.3,5.9c-4.5,12.9-11.7,22.8-21.5,29.6c-9.8,6.8-22,10.2-36.8,10.2c-23.3,0-40.5-7.6-51.7-22.8
		c-8.8-12.2-13.2-27.6-13.2-46.1c0-22.2,5.8-39.6,17.4-52.1c11.6-12.6,26.3-18.9,44-18.9c19.9,0,35.6,6.6,47.2,19.7
		c11.5,13.2,17,33.3,16.5,60.5h-88.8c0.3,10.5,3.1,18.7,8.6,24.5c5.5,5.8,12.3,8.8,20.4,8.8c5.5,0,10.2-1.5,14-4.5
		C315.6,731,318.4,726.1,320.4,719.4z M322.4,683.6c-0.3-10.3-2.9-18-7.9-23.4c-5-5.3-11.2-8-18.4-8c-7.7,0-14.1,2.8-19.2,8.4
		c-5,5.6-7.5,13.3-7.4,22.9H322.4z"/>
	<path class="st2" d="M421.7,577.1v68c11.4-13.4,25.1-20,41-20c8.2,0,15.5,1.5,22.1,4.5s11.5,6.9,14.8,11.6
		c3.3,4.7,5.6,9.9,6.8,15.6c1.2,5.7,1.8,14.6,1.8,26.6V762h-35.4v-70.7c0-14-0.7-22.9-2-26.7c-1.3-3.8-3.7-6.8-7.1-9
		c-3.4-2.2-7.7-3.3-12.8-3.3c-5.9,0-11.1,1.4-15.8,4.3c-4.6,2.9-8,7.2-10.2,12.9c-2.1,5.8-3.2,14.3-3.2,25.5V762h-35.4V577.1H421.7z
		"/>
	<path class="st2" d="M578.1,762h-35.4V628.1h32.9v19c5.6-9,10.7-14.9,15.2-17.8c4.5-2.9,9.6-4.3,15.3-4.3c8.1,0,15.8,2.2,23.3,6.7
		l-11,30.9c-6-3.9-11.5-5.8-16.6-5.8c-5,0-9.2,1.4-12.6,4.1c-3.4,2.7-6.2,7.7-8.1,14.8c-2,7.1-3,22.1-3,44.9V762z"/>
	<path class="st2" d="M722.2,719.4l35.3,5.9c-4.5,12.9-11.7,22.8-21.5,29.6c-9.8,6.8-22,10.2-36.8,10.2c-23.3,0-40.5-7.6-51.7-22.8
		c-8.8-12.2-13.2-27.6-13.2-46.1c0-22.2,5.8-39.6,17.4-52.1c11.6-12.6,26.3-18.9,44-18.9c19.9,0,35.6,6.6,47.2,19.7
		c11.5,13.2,17,33.3,16.5,60.5h-88.8c0.3,10.5,3.1,18.7,8.6,24.5c5.5,5.8,12.3,8.8,20.4,8.8c5.5,0,10.2-1.5,14-4.5
		C717.4,731,720.3,726.1,722.2,719.4z M724.2,683.6c-0.3-10.3-2.9-18-7.9-23.4c-5-5.3-11.2-8-18.4-8c-7.7,0-14.1,2.8-19.2,8.4
		c-5,5.6-7.5,13.3-7.4,22.9H724.2z"/>
	<path class="st2" d="M910.1,762h-35.4v-68.3c0-14.5-0.8-23.8-2.3-28.1c-1.5-4.2-4-7.5-7.4-9.9c-3.4-2.4-7.5-3.5-12.3-3.5
		c-6.1,0-11.6,1.7-16.5,5c-4.9,3.4-8.2,7.8-10,13.4c-1.8,5.5-2.7,15.8-2.7,30.8V762H788V628.1h32.9v19.7
		c11.7-15.1,26.4-22.7,44.1-22.7c7.8,0,15,1.4,21.4,4.2c6.5,2.8,11.4,6.4,14.7,10.8c3.3,4.4,5.6,9.3,6.9,14.9c1.3,5.5,2,13.5,2,23.8
		V762z"/>
</g>
</svg>
